<?xml version="1.0" encoding="UTF-8" standalone="no"?>
<svg
   xmlns:dc="http://purl.org/dc/elements/1.1/"
   xmlns:cc="http://creativecommons.org/ns#"
   xmlns:rdf="http://www.w3.org/1999/02/22-rdf-syntax-ns#"
   xmlns:svg="http://www.w3.org/2000/svg"
   xmlns="http://www.w3.org/2000/svg"
   xmlns:sodipodi="http://sodipodi.sourceforge.net/DTD/sodipodi-0.dtd"
   xmlns:inkscape="http://www.inkscape.org/namespaces/inkscape"
   aria-labelledby="simpleicons-github-icon"
   role="img"
   viewBox="0 0 24 24"
   version="1.1"
   id="svg78"
   sodipodi:docname="github.svg"
   inkscape:version="0.92.2 5c3e80d, 2017-08-06">
  <metadata
     id="metadata84">
    <rdf:RDF>
      <cc:Work
         rdf:about="">
        <dc:format>image/svg+xml</dc:format>
        <dc:type
           rdf:resource="http://purl.org/dc/dcmitype/StillImage" />
      </cc:Work>
    </rdf:RDF>
  </metadata>
  <defs
     id="defs82" />
  <sodipodi:namedview
     pagecolor="#ffffff"
     bordercolor="#666666"
     borderopacity="1"
     objecttolerance="10"
     gridtolerance="10"
     guidetolerance="10"
     inkscape:pageopacity="0"
     inkscape:pageshadow="2"
     inkscape:window-width="1280"
     inkscape:window-height="686"
     id="namedview80"
     showgrid="false"
     inkscape:zoom="14.024284"
     inkscape:cx="2.1089853"
     inkscape:cy="9.1587622"
     inkscape:window-x="0"
     inkscape:window-y="0"
     inkscape:window-maximized="0"
     inkscape:current-layer="svg78" />
  <title
     id="simpleicons-github-icon">GitHub icon</title>
  <path
     d="M12 .297c-6.63 0-12 5.373-12 12 0 5.303 3.438 9.8 8.205 11.385.6.113.82-.258.82-.577 0-.285-.01-1.04-.015-2.04-3.338.724-4.042-1.61-4.042-1.61C4.422 18.07 3.633 17.7 3.633 17.7c-1.087-.744.084-.729.084-.729 1.205.084 1.838 1.236 1.838 1.236 1.07 1.835 2.809 1.305 3.495.998.108-.776.417-1.305.76-1.605-2.665-.3-5.466-1.332-5.466-5.93 0-1.31.465-2.38 1.235-3.22-.135-.303-.54-1.523.105-3.176 0 0 1.005-.322 3.3 1.23.96-.267 1.98-.399 3-.405 1.02.006 2.04.138 3 .405 2.28-1.552 3.285-1.23 3.285-1.23.645 1.653.24 2.873.12 3.176.765.84 1.23 1.91 1.23 3.22 0 4.61-2.805 5.625-5.475 5.92.42.36.81 1.096.81 2.22 0 1.606-.015 2.896-.015 3.286 0 .315.21.69.825.57C20.565 22.092 24 17.592 24 12.297c0-6.627-5.373-12-12-12"
     id="path76"
     style="fill:#502187;fill-opacity:1" />
  <path
     style="fill:#2b2200;fill-opacity:1;stroke:#2b2200;stroke-width:0.05042017;stroke-opacity:1"
     d="M 7.8236547,23.523697 C 7.1932534,23.291283 5.9582058,22.660195 5.4034866,22.287034 3.4107838,20.94654 1.8589569,19.083111 0.97620513,16.97077 0.36178929,15.500532 0.09487785,14.258301 0.0480924,12.651248 0.00368662,11.125936 0.17190702,9.9578405 0.64096213,8.5344575 2.0297867,4.3199649 5.5982255,1.2627807 10.042142,0.4801966 c 0.775173,-0.13650971 2.351993,-0.18657633 3.161099,-0.10037007 2.708843,0.28861375 5.169373,1.43882397 7.113368,3.32524607 2.001586,1.9423079 3.175598,4.2863975 3.576146,7.1403054 0.09554,0.680713 0.07827,2.391004 -0.03157,3.126051 -0.512853,3.43216 -2.384347,6.378817 -5.272826,8.302038 -0.650246,0.43295 -1.838969,1.026706 -2.510831,1.254137 -0.463599,0.156933 -0.516914,0.16491 -0.711848,0.106506 -0.14485,-0.0434 -0.241423,-0.113495 -0.308956,-0.224251 -0.09296,-0.152468 -0.09825,-0.267525 -0.09843,-2.142763 -1.51e-4,-1.650104 -0.01394,-2.042119 -0.0824,-2.343113 -0.107046,-0.470645 -0.23361,-0.759521 -0.470011,-1.072773 l -0.192193,-0.254673 0.463719,-0.06223 c 2.449515,-0.32874 4.013921,-1.498311 4.630781,-3.462034 0.219433,-0.698548 0.305351,-1.331326 0.308068,-2.268908 0.0021,-0.726284 -0.01479,-0.925958 -0.110674,-1.307896 C 19.36212,9.9239939 19.033304,9.2299745 18.69499,8.7845748 L 18.431784,8.4380566 18.522126,8.1039025 C 18.656892,7.6054351 18.643767,6.4474745 18.497302,5.9137266 18.31236,5.2397606 18.31983,5.2477463 17.880865,5.2547299 17.25944,5.2646164 16.287111,5.6429077 15.36147,6.2349182 l -0.378151,0.2418534 -0.403362,-0.096866 c -0.865186,-0.2077725 -1.47372,-0.2713689 -2.596638,-0.2713689 -1.122919,0 -1.731453,0.063596 -2.5966391,0.2713689 L 8.9833186,6.4767716 8.6051673,6.2349182 C 7.6638318,5.6328701 6.7066266,5.2634373 6.0645313,5.2543618 L 5.666752,5.2487395 5.5733784,5.5211723 C 5.3054401,6.3029264 5.2486367,7.3112269 5.4317426,8.0353134 L 5.5356293,8.4461279 5.2777135,8.7826316 C 4.5101697,9.7840477 4.2151607,11.014409 4.3670676,12.580559 c 0.2345967,2.41868 1.3519358,3.920491 3.431377,4.612102 0.5314568,0.176759 1.4546526,0.38381 1.7113306,0.38381 0.075575,0 0.1498109,0.0124 0.1649693,0.02756 0.015158,0.01516 -0.071143,0.174753 -0.1917812,0.354656 -0.21288,0.317459 -0.4240145,0.868615 -0.4240145,1.106867 0,0.09557 -0.050311,0.13594 -0.2734699,0.219435 -0.6461657,0.241761 -1.4138128,0.263066 -1.954921,0.05425 C 6.4164122,19.179427 6.0112483,18.828138 5.6697288,18.332773 5.2976976,17.793151 5.0476735,17.524969 4.7036913,17.296578 4.3746925,17.078135 4.0399095,16.971429 3.68356,16.971429 c -0.7328006,0 -0.6804008,0.326416 0.143108,0.891469 0.3568683,0.244866 0.6646739,0.674798 1.0583601,1.478278 0.3037831,0.619997 0.4058158,0.777964 0.6714469,1.039536 0.3737975,0.368086 0.8698493,0.631822 1.41756,0.753676 0.3077471,0.06847 0.5250696,0.0797 1.0716091,0.05538 0.3770652,-0.01678 0.7479686,-0.04516 0.8242291,-0.06307 l 0.1386555,-0.03256 -2.017e-4,1.077306 c -1.513e-4,0.98778 -0.00855,1.091028 -0.1008636,1.242429 C 8.7213056,23.7192 8.43311,23.748406 7.8236416,23.523708 Z"
     id="path4627"
     inkscape:connector-curvature="0" />
  <path
     style="fill:#000080;fill-opacity:0;stroke:#2b2200;stroke-width:0.07130489;stroke-opacity:1"
     d="M 7.6475152,23.451864 C 5.3784609,22.556239 3.2803857,20.841627 1.9623708,18.805789 0.5800961,16.670694 -0.01326549,14.471752 0.07265474,11.802682 0.11372734,10.526781 0.30492142,9.485627 0.71044383,8.329578 2.1146867,4.3264118 5.5381558,1.3842283 9.7776282,0.53709615 10.940487,0.30473351 13.07811,0.30518278 14.233225,0.53803259 c 4.285753,0.86392811 7.747553,3.88452791 9.098743,7.93912301 0.484513,1.4539087 0.572583,2.0462894 0.570875,3.8398894 -0.0013,1.389659 -0.0228,1.702159 -0.160513,2.335166 -0.352166,1.618793 -1.088305,3.311298 -1.992104,4.580171 -0.924187,1.297498 -2.464995,2.679638 -3.818446,3.425235 -1.34346,0.740092 -2.255826,1.076268 -2.596134,0.956588 -0.353363,-0.124271 -0.375331,-0.262139 -0.376469,-2.362714 -6.42e-4,-1.160223 -0.03327,-2.091375 -0.08122,-2.317408 -0.0773,-0.364323 -0.297456,-0.851197 -0.531259,-1.174881 -0.110104,-0.152433 -0.105859,-0.156138 0.23181,-0.202328 1.631285,-0.223145 2.859773,-0.784477 3.697779,-1.689623 0.93096,-1.005549 1.330246,-2.236533 1.336585,-4.120645 0.0029,-0.866183 -0.01625,-1.019761 -0.191265,-1.533055 C 19.212997,9.6017598 18.983216,9.1619128 18.648084,8.7328884 18.441851,8.4688771 18.4399,8.4581992 18.530798,8.0911444 c 0.182,-0.734936 0.03743,-2.4127523 -0.236449,-2.7441521 -0.1026,-0.1241489 -0.668852,-0.1112387 -1.130656,0.025778 -0.437222,0.1297232 -1.175314,0.4817535 -1.779109,0.8485393 L 14.978289,6.468121 14.308637,6.3111391 C 13.720937,6.1733684 13.438283,6.1541335 11.998973,6.1539639 10.570903,6.1537928 10.268889,6.1739477 9.6619866,6.3099013 L 8.965012,6.4660319 8.5924134,6.2281132 C 7.665432,5.6362004 6.6591452,5.2578612 6.0117877,5.2578612 H 5.6370578 L 5.5130627,5.6678643 C 5.3368545,6.2505162 5.2924279,7.5364716 5.4311544,8.0387517 5.5334455,8.4091122 5.531812,8.440845 5.4017901,8.6091908 5.0634188,9.0472959 4.757045,9.6169135 4.5768548,10.14293 c -0.3670036,1.071368 -0.3047905,2.82205 0.1463895,4.119418 0.6091376,1.751575 1.9817193,2.792102 4.2666945,3.234498 l 0.681915,0.132026 -0.2197003,0.383996 c -0.1208347,0.211197 -0.2747663,0.564243 -0.3420695,0.784547 -0.119035,0.38964 -0.1326549,0.404037 -0.4999421,0.528482 -0.2336668,0.07917 -0.5897342,0.128397 -0.9342266,0.129154 -0.908586,0.002 -1.4060954,-0.297898 -2.1037352,-1.268115 -0.5520783,-0.767783 -1.1007882,-1.145173 -1.7645416,-1.213611 -0.297442,-0.03067 -0.3983467,-0.01078 -0.5435141,0.107121 l -0.1782622,0.144781 0.3120911,0.273321 c 0.840988,0.736514 1.0518847,0.994112 1.4507361,1.771994 0.4710996,0.918788 0.8371288,1.323878 1.463685,1.619886 0.5998461,0.283389 1.2524928,0.377603 2.0348236,0.293739 l 0.6213173,-0.0666 v 1.125869 c 0,1.030796 -0.012043,1.137912 -0.1426098,1.268479 -0.1983374,0.198337 -0.5720171,0.179295 -1.1783903,-0.06005 z"
     id="path4629"
     inkscape:connector-curvature="0" />
  <path
     style="fill:#000080;fill-opacity:0;stroke:#2b2200;stroke-width:0.07130489;stroke-opacity:1"
     d="M 7.4121314,23.369423 C 3.7651736,21.828979 1.0961222,18.612812 0.26438081,14.756489 0.07454084,13.876307 -0.00335001,11.6628 0.12202724,10.711076 0.78488984,5.6793695 4.541529,1.6601345 9.6226777,0.54631395 10.593407,0.33352366 12.650974,0.2795113 13.729168,0.43851611 c 1.937608,0.28574549 3.865526,1.09146039 5.476673,2.28880909 0.776505,0.5770724 1.965274,1.7941289 2.544385,2.6049322 0.893905,1.2515382 1.639193,2.947492 1.995982,4.5419883 0.135875,0.6072293 0.156018,0.9137333 0.158191,2.4071463 0.002,1.407945 -0.02096,1.818762 -0.129758,2.317409 -0.348217,1.595883 -1.109444,3.358147 -1.99258,4.612883 -0.579016,0.82265 -1.979198,2.216427 -2.830862,2.817911 -1.159212,0.818689 -2.874645,1.624927 -3.457361,1.624927 -0.170646,0 -0.28036,-0.05113 -0.379112,-0.176672 -0.128936,-0.163915 -0.141413,-0.332513 -0.172814,-2.335235 -0.03145,-2.005551 -0.04493,-2.187248 -0.190199,-2.563215 -0.08599,-0.222558 -0.236753,-0.523127 -0.33502,-0.66793 -0.09827,-0.144803 -0.16306,-0.278884 -0.143986,-0.297957 0.01907,-0.01907 0.301422,-0.08011 0.627442,-0.13563 3.256242,-0.55456 4.81079,-2.564582 4.675826,-6.045819 C 19.536347,10.409899 19.356091,9.8470001 18.79138,8.9819492 L 18.440183,8.4439703 18.527556,7.9809114 C 18.634254,7.4154344 18.576941,6.2334365 18.417165,5.7042355 18.329235,5.4130027 18.265664,5.3208922 18.128904,5.2865677 17.671036,5.1716499 16.491612,5.5703809 15.496838,6.1763975 L 15.00163,6.4780785 14.21335,6.3171932 C 13.07772,6.0854147 10.935495,6.0849691 9.7669282,6.3162684 L 8.9609805,6.4757927 8.5493502,6.2257406 C 7.5569694,5.6229011 6.4651192,5.2256478 5.9263937,5.2714174 5.6956809,5.2910185 5.6556036,5.324587 5.5714823,5.5686893 5.3348155,6.2554458 5.2955336,7.4082283 5.4840315,8.1350504 5.5514709,8.3950879 5.5373871,8.436218 5.2177939,8.9125632 4.5116169,9.9651024 4.2436651,11.143476 4.3936086,12.537087 c 0.1067242,0.99192 0.2533658,1.549052 0.5989641,2.275629 0.2284112,0.480205 0.4009693,0.717942 0.8308016,1.144607 0.8047813,0.798851 1.7522763,1.247337 3.2256812,1.526836 0.3227666,0.06123 0.5965588,0.121034 0.6084268,0.132902 0.011868,0.01187 -0.087351,0.228035 -0.2204875,0.48037 -0.1331362,0.252335 -0.2781447,0.594947 -0.3222404,0.761361 -0.096876,0.365599 -0.283608,0.47969 -0.9626551,0.588168 -0.991292,0.15836 -1.7629292,-0.151227 -2.3620614,-0.947677 -0.71651,-0.952484 -1.1831012,-1.326993 -1.8353911,-1.473174 -0.339883,-0.07617 -0.7618273,0.01202 -0.7618273,0.159233 0,0.04231 0.2971749,0.368061 0.6603886,0.7239 0.5571153,0.545804 0.7181709,0.758532 1.0298823,1.360302 0.4976472,0.960728 0.7632139,1.25501 1.4296803,1.584269 l 0.545272,0.269385 h 1.0909132 1.0909127 l -0.00427,0.820006 c -0.0053,1.0164 -0.078592,1.491248 -0.2494602,1.61619 -0.2282861,0.166927 -0.6754155,0.105107 -1.3740023,-0.189971 z"
     id="path4653"
     inkscape:connector-curvature="0" />
  <path
     style="fill:#ffffff;fill-opacity:1;stroke:#2b2200;stroke-width:0.07130489;stroke-opacity:1"
     d="M 7.6493749,23.482695 C 3.9657104,22.063268 1.1140976,18.706537 0.25375813,14.777063 0.04467536,13.822108 -0.00679665,11.382716 0.16096638,10.379419 0.77867605,6.6852472 3.0294989,3.5262665 6.312156,1.7463592 7.5388266,1.0812394 9.0864022,0.57556237 10.392743,0.41300956 c 0.780088,-0.0970694 2.54444,-0.0965677 3.258909,9.2658e-4 3.806955,0.51948616 7.249225,2.96690086 8.995317,6.39556846 0.466694,0.9164126 0.828404,1.89348 1.088596,2.9405644 0.154519,0.621826 0.16845,0.826561 0.169826,2.495671 0.0016,1.956115 -0.04583,2.340978 -0.436806,3.543496 -0.667058,2.051659 -1.506531,3.432657 -2.982565,4.906551 -1.049391,1.047869 -1.825478,1.626071 -2.964827,2.208863 -1.494324,0.764365 -2.13525,0.917996 -2.40406,0.576259 -0.124729,-0.158566 -0.140942,-0.357445 -0.187081,-2.294819 -0.05475,-2.298952 -0.101644,-2.594288 -0.516189,-3.25097 -0.220193,-0.348808 -0.20265,-0.364785 0.5304,-0.483038 2.245617,-0.362257 3.765081,-1.588565 4.3546,-3.514452 0.18894,-0.617245 0.320503,-1.92023 0.268026,-2.654506 -0.06415,-0.897676 -0.307305,-1.5699232 -0.879598,-2.4318567 l -0.249067,-0.3751228 0.08716,-0.6378422 c 0.06696,-0.4899981 0.06826,-0.7981246 0.0056,-1.3293442 C 18.437978,5.7202022 18.313514,5.3626956 18.109378,5.2979055 17.72809,5.1768893 16.428872,5.6302537 15.446081,6.227268 L 15.014265,6.4895821 14.326625,6.3550296 C 13.340052,6.1619841 10.589793,6.1611223 9.6102592,6.3535517 L 8.9328628,6.4866262 8.4383977,6.1843396 C 7.8138303,5.8025164 7.1089915,5.5014991 6.5192743,5.3647345 5.8182413,5.202154 5.7126987,5.2297749 5.5744723,5.611992 5.4188192,6.0423965 5.357052,7.4841666 5.4711056,8.0247774 L 5.556792,8.4309286 5.2350352,8.91976 C 4.5562715,9.9509762 4.3672056,10.7157 4.425366,12.194665 c 0.046909,1.192854 0.1620567,1.698349 0.590886,2.593974 0.6724169,1.404367 1.9150932,2.246319 3.9199415,2.655882 0.379297,0.07748 0.7029071,0.154159 0.719134,0.170385 0.024729,0.02473 -0.3256772,0.831281 -0.638387,1.469415 -0.1230458,0.251095 -0.5560954,0.380924 -1.2962607,0.388623 -1.0100173,0.01051 -1.3078437,-0.177655 -2.4103546,-1.522813 -0.4698566,-0.573265 -1.0864188,-0.926964 -1.6158707,-0.926964 -0.6193618,0 -0.5978575,0.119913 0.1558727,0.869182 0.5392993,0.536107 0.7358458,0.792857 1.0212541,1.334072 0.458869,0.870144 0.8872834,1.34063 1.4870187,1.63305 0.4652423,0.226843 0.4737782,0.228075 1.580759,0.228075 h 1.1129908 l -0.024091,1.133543 c -0.021128,0.99412 -0.040799,1.151985 -0.1599262,1.283488 -0.1831644,0.202191 -0.6596472,0.193637 -1.2189577,-0.02188 z"
     id="path4655"
     inkscape:connector-curvature="0" />
</svg>
